<svg width="1000" height="1000" viewBox="0 0 1000 1000" fill="none" xmlns="http://www.w3.org/2000/svg">
<path opacity="0.997" fill-rule="evenodd" clip-rule="evenodd" d="M473.5 612.5C472.833 612.5 472.5 612.833 472.5 613.5C397.5 613.5 322.5 613.5 247.5 613.5C247.333 537.499 247.5 461.499 248 385.5C322.5 311 397 236.5 471.5 162C546.833 161.5 622.166 161.333 697.5 161.5C697.667 237.167 697.5 312.834 697 388.5C622.299 463.035 547.799 537.701 473.5 612.5Z" fill="white"/>
<path opacity="0.999" fill-rule="evenodd" clip-rule="evenodd" d="M473.5 612.5C548.167 612.5 622.833 612.5 697.5 612.5C697.5 687.833 697.5 763.167 697.5 838.5C622.5 838.5 547.5 838.5 472.5 838.5C472.5 763.5 472.5 688.5 472.5 613.5C472.5 612.833 472.833 612.5 473.5 612.5Z" fill="#18D89F"/>
</svg>
